<svg xmlns="http://www.w3.org/2000/svg" width="388" height="409" viewBox="0 0 388 409">
  <g id="Grupo_4" data-name="Grupo 4" transform="translate(-314 -287)">
    <path id="União_1" data-name="União 1" d="M169,193V168H0V50H29V25H77V0H221V25h48V50h17V75h27V193Z" transform="translate(362 287)" fill="#362c2b"/>
    <g id="Grupo_3" data-name="Grupo 3" transform="translate(-1024 -257)">
      <rect id="Retângulo_24" data-name="Retângulo 24" width="313" height="215" transform="translate(1363 644)" fill="#fec79e"/>
      <rect id="Retângulo_1" data-name="Retângulo 1" width="48" height="25" transform="translate(1463 544)" fill="#4d4341"/>
      <rect id="Retângulo_2" data-name="Retângulo 2" width="96" height="25" transform="translate(1511 544)" fill="#362c2b"/>
      <rect id="Retângulo_3" data-name="Retângulo 3" width="215" height="25" transform="translate(1415 569)" fill="#362c2b"/>
      <rect id="Retângulo_4" data-name="Retângulo 4" width="25" height="25" transform="translate(1630 569)" fill="#4d4341"/>
      <rect id="Retângulo_5" data-name="Retângulo 5" width="25" height="25" transform="translate(1361 594)" fill="#4d4341"/>
      <rect id="Retângulo_6" data-name="Retângulo 6" width="25" height="25" transform="translate(1411 619)" fill="#4d4341"/>
      <rect id="Retângulo_7" data-name="Retângulo 7" width="23" height="25" transform="translate(1363 644)" fill="#4d4341"/>
      <rect id="Retângulo_8" data-name="Retângulo 8" width="25" height="25" transform="translate(1338 669)" fill="#4d4341"/>
      <rect id="Retângulo_9" data-name="Retângulo 9" width="50" height="25" transform="translate(1386 594)" fill="#362c2b"/>
      <rect id="Retângulo_10" data-name="Retângulo 10" width="44" height="25" transform="translate(1436 594)" fill="#4d4341"/>
      <rect id="Retângulo_11" data-name="Retângulo 11" width="192" height="25" transform="translate(1480 594)" fill="#362c2b"/>
      <rect id="Retângulo_12" data-name="Retângulo 12" width="96" height="25" transform="translate(1436 619)" fill="#362c2b"/>
      <rect id="Retângulo_13" data-name="Retângulo 13" width="25" height="25" transform="translate(1386 619)" fill="#362c2b"/>
      <rect id="Retângulo_14" data-name="Retângulo 14" width="75" height="25" transform="translate(1624 619)" fill="#362c2b"/>
      <rect id="Retângulo_15" data-name="Retângulo 15" width="25" height="25" transform="translate(1459 644)" fill="#362c2b"/>
      <rect id="Retângulo_16" data-name="Retângulo 16" width="50" height="25" transform="translate(1386 644)" fill="#362c2b"/>
      <rect id="Retângulo_17" data-name="Retângulo 17" width="48" height="25" transform="translate(1363 669)" fill="#362c2b"/>
      <rect id="Retângulo_18" data-name="Retângulo 18" width="25" height="28" transform="translate(1674 644)" fill="#4d4341"/>
      <rect id="Retângulo_19" data-name="Retângulo 19" width="25" height="26" transform="translate(1649 643)" fill="#362c2b"/>
      <rect id="Retângulo_20" data-name="Retângulo 20" width="50" height="69" transform="translate(1649 669)" fill="#4d4341"/>
      <rect id="Retângulo_21" data-name="Retângulo 21" width="25" height="29" transform="translate(1363 690)" fill="#362c2b"/>
      <rect id="Retângulo_22" data-name="Retângulo 22" width="25" height="25" transform="translate(1599 619)" fill="#dc935c"/>
      <rect id="Retângulo_23" data-name="Retângulo 23" width="25" height="25" transform="translate(1624 644)" fill="#dc935c"/>
      <rect id="Retângulo_25" data-name="Retângulo 25" width="67" height="32" transform="translate(1532 619)" fill="#fec79e"/>
      <rect id="Retângulo_26" data-name="Retângulo 26" width="119" height="25" transform="translate(1363 713)" fill="#221e1b"/>
      <rect id="Retângulo_27" data-name="Retângulo 27" width="169" height="25" transform="translate(1507 713)" fill="#221e1b"/>
      <rect id="Retângulo_29" data-name="Retângulo 29" width="25" height="59" transform="translate(1363 725)" fill="#221e1b"/>
      <rect id="Retângulo_30" data-name="Retângulo 30" width="71" height="25" transform="translate(1388 784)" fill="#221e1b"/>
      <rect id="Retângulo_31" data-name="Retângulo 31" width="23" height="49" transform="translate(1459 735)" fill="#221e1b"/>
      <rect id="Retângulo_32" data-name="Retângulo 32" width="31" height="23" transform="translate(1479 738)" fill="#221e1b"/>
      <rect id="Retângulo_33" data-name="Retângulo 33" width="25" height="50" transform="translate(1507 734)" fill="#221e1b"/>
      <rect id="Retângulo_34" data-name="Retângulo 34" width="71" height="25" transform="translate(1532 784)" fill="#221e1b"/>
      <rect id="Retângulo_35" data-name="Retângulo 35" width="25" height="59" transform="translate(1603 725)" fill="#221e1b"/>
      <rect id="Retângulo_37" data-name="Retângulo 37" width="71" height="46" transform="translate(1388 738)" fill="#c2dde6"/>
      <rect id="Retângulo_36" data-name="Retângulo 36" width="48" height="23" transform="translate(1411 761)" fill="#362c2b"/>
      <rect id="Retângulo_38" data-name="Retângulo 38" width="71" height="46" transform="translate(1532 738)" fill="#c2dde6"/>
      <rect id="Retângulo_39" data-name="Retângulo 39" width="48" height="23" transform="translate(1555 761)" fill="#362c2b"/>
      <rect id="Retângulo_40" data-name="Retângulo 40" width="25" height="25" transform="translate(1459 809)" fill="#dc935c"/>
      <rect id="Retângulo_41" data-name="Retângulo 41" width="27" height="144" transform="translate(1649 738)" fill="#4d4341"/>
      <rect id="Retângulo_42" data-name="Retângulo 42" width="25" height="71" transform="translate(1628 834)" fill="#4d4341"/>
      <rect id="Retângulo_43" data-name="Retângulo 43" width="54" height="23" transform="translate(1578 859)" fill="#4d4341"/>
      <rect id="Retângulo_44" data-name="Retângulo 44" width="71" height="25" transform="translate(1363 857)" fill="#4d4341"/>
      <rect id="Retângulo_45" data-name="Retângulo 45" width="23" height="25" transform="translate(1555 834)" fill="#4d4341"/>
      <rect id="Retângulo_46" data-name="Retângulo 46" width="25" height="25" transform="translate(1434 834)" fill="#4d4341"/>
      <rect id="Retângulo_47" data-name="Retângulo 47" width="25" height="29" transform="translate(1363 832)" fill="#4d4341"/>
      <rect id="Retângulo_48" data-name="Retângulo 48" width="96" height="25" transform="translate(1459 834)" fill="#362c2b"/>
      <rect id="Retângulo_49" data-name="Retângulo 49" width="192" height="25" transform="translate(1411 928)" fill="#362c2b"/>
      <rect id="Retângulo_50" data-name="Retângulo 50" width="31" height="25" transform="translate(1603 880)" fill="#4d4341"/>
      <rect id="Retângulo_51" data-name="Retângulo 51" width="25" height="25" transform="translate(1386 880)" fill="#4d4341"/>
      <rect id="Retângulo_52" data-name="Retângulo 52" width="50" height="25" transform="translate(1482 903)" fill="#4d4341"/>
      <rect id="Retângulo_53" data-name="Retângulo 53" width="23" height="57" transform="translate(1411 882)" fill="#362c2b"/>
      <rect id="Retângulo_54" data-name="Retângulo 54" width="32" height="23" transform="translate(1596 905)" fill="#362c2b"/>
      <rect id="Retângulo_55" data-name="Retângulo 55" width="25" height="52" transform="translate(1578 882)" fill="#362c2b"/>
      <g id="Grupo_2" data-name="Grupo 2" transform="translate(1675.935 738)">
        <rect id="Retângulo_56" data-name="Retângulo 56" width="50" height="25" transform="translate(0.065)" fill="#fec79e"/>
        <rect id="Retângulo_58" data-name="Retângulo 58" width="25" height="25" transform="translate(0.065 75)" fill="#fec79e"/>
        <rect id="Retângulo_59" data-name="Retângulo 59" width="50" height="50" transform="translate(0.065 25)" fill="#dc935c"/>
        <rect id="Retângulo_57" data-name="Retângulo 57" width="25" height="25" transform="translate(25.065 50)" fill="#fec79e"/>
      </g>
      <rect id="Retângulo_60" data-name="Retângulo 60" width="96" height="44" transform="translate(1459 859)" fill="#fff"/>
      <rect id="Retângulo_61" data-name="Retângulo 61" width="23" height="25" transform="translate(1555 859)" fill="#c7dbe2"/>
      <rect id="Retângulo_62" data-name="Retângulo 62" width="23" height="19" transform="translate(1532 884)" fill="#c7dbe2"/>
      <rect id="Retângulo_64" data-name="Retângulo 64" width="48" height="25" transform="translate(1434 903)" fill="#dc935c"/>
      <rect id="Retângulo_65" data-name="Retângulo 65" width="46" height="25" transform="translate(1532 903)" fill="#dc935c"/>
      <rect id="Retângulo_66" data-name="Retângulo 66" width="23" height="25" transform="translate(1555 884)" fill="#dc935c"/>
      <rect id="Retângulo_67" data-name="Retângulo 67" width="25" height="25" transform="translate(1434 878)" fill="#fec79e"/>
      <rect id="Retângulo_68" data-name="Retângulo 68" width="25" height="25" transform="translate(1434 859)" fill="#dc935c"/>
    </g>
    <rect id="Retângulo_75" data-name="Retângulo 75" width="25" height="74" transform="translate(363 359)" fill="#362c2b"/>
  </g>
</svg>
